# File created by Blade
# Date/Time:  Tue Jan 27 19:38:14 2015
# Frame Rate: 120.000 fps
#------------------------------------------------------
:FULLY-SPECIFIED
:DEGREES
3030
root 4.788210 32.330346 2.085643 -2.119289 -8.118493 -0.300898
Spine 3.548993 -8.770606 2.405942
Head 5.333407 9.810351 4.733641
LeftShoulder -12.277737 -1.165356 30.101913
LeftArm -1.457987 25.898269 -101.752982
LeftForeArm 1.378054 -0.000000 11.234608
LeftHand 10.787616 -0.000000 -2.708645
LeftHandThumb1 -26.253704 0.000000 33.147579
RightShoulder -23.426794 -19.479130 -18.216565
RightArm -0.631585 -2.138053 106.828557
RightForeArm 21.419483 -0.000000 14.382160
RightHand 23.966897 -0.000000 -34.346536
RightHandThumb1 -24.326973 -0.000000 -32.862282
LeftUpLeg 7.716589 2.576333 -3.239602
LeftLeg 1.616123 -0.000000 -0.000000
LeftFoot -18.564981 15.838534 -21.994799
LeftToeBase 16.682651 -0.000000 -0.000000
RightUpLeg 3.907006 -0.793940 3.274963
RightLeg 4.062258 -0.000000 -0.000000
RightFoot -11.515625 -11.763245 13.181997
RightToeBase 8.880276 -0.000000 -0.000000
3031
root 4.789814 32.331594 2.079450 -2.158371 -8.177549 -0.296426
Spine 3.666150 -8.761950 2.318109
Head 5.347291 9.824435 4.690809
LeftShoulder -12.294570 -1.165037 30.061087
LeftArm -1.419360 25.957818 -101.812313
LeftForeArm 1.383401 -0.000000 11.242117
LeftHand 10.711215 -0.000000 -2.873836
LeftHandThumb1 -26.253704 0.000000 33.147579
RightShoulder -23.371041 -19.486597 -18.467084
RightArm -0.644896 -1.616555 106.764070
RightForeArm 20.544344 0.000000 14.655732
RightHand 23.940897 -0.000000 -35.316068
RightHandThumb1 -24.326973 -0.000000 -32.862282
LeftUpLeg 7.740780 2.606093 -3.246664
LeftLeg 1.633403 -0.000000 -0.000000
LeftFoot -18.572750 15.865544 -22.010472
LeftToeBase 16.700293 -0.000000 -0.000000
RightUpLeg 3.907160 -0.742448 3.269389
RightLeg 4.103026 -0.000000 -0.000000
RightFoot -11.526912 -11.747538 13.218655
RightToeBase 8.957350 -0.000000 -0.000000
3032
root 4.782069 32.333371 2.073271 -2.127932 -8.105759 -0.283927
Spine 3.667062 -8.862560 2.183248
Head 5.415631 9.713640 4.706104
LeftShoulder -12.299678 -1.163286 30.026499
LeftArm -1.404832 26.042510 -101.840217
LeftForeArm 1.514414 -0.000000 11.217284
LeftHand 10.667861 -0.000000 -2.438571
LeftHandThumb1 -26.253704 0.000000 33.147579
RightShoulder -23.344203 -19.532218 -18.633042
RightArm -0.667482 -1.079988 106.623034
RightForeArm 19.578792 -0.000000 14.980489
RightHand 24.000968 -0.000000 -36.519946
RightHandThumb1 -24.326973 -0.000000 -32.862282
LeftUpLeg 7.652990 2.524598 -3.244917
LeftLeg 1.713703 -0.000000 -0.000000
LeftFoot -18.600469 15.830839 -22.087861
LeftToeBase 16.707973 -0.000000 -0.000000
RightUpLeg 3.877037 -0.813082 3.275664
RightLeg 4.092668 -0.000000 -0.000000
RightFoot -11.511618 -11.792072 13.168346
RightToeBase 8.940370 -0.000000 -0.000000
3033
root 4.777880 32.333700 2.067449 -2.143943 -8.093353 -0.268392
Spine 3.735756 -8.927897 2.046786
Head 5.477412 9.584798 4.714082
LeftShoulder -12.310072 -1.156590 29.996781
LeftArm -1.406823 26.095636 -101.888984
LeftForeArm 1.412294 -0.000000 11.242925
LeftHand 10.733177 -0.000000 -2.494263
LeftHandThumb1 -26.253704 0.000000 33.147579
RightShoulder -23.293047 -19.456481 -18.817877
RightArm -0.848822 -0.412093 106.439150
RightForeArm 18.958211 -0.000000 15.572020
RightHand 23.816463 -0.000000 -36.861145
RightHandThumb1 -24.326973 -0.000000 -32.862282
LeftUpLeg 7.638079 2.536393 -3.244071
LeftLeg 1.736085 -0.000000 -0.000000
LeftFoot -18.561368 15.814203 -22.057150
LeftToeBase 16.786740 -0.000000 -0.000000
RightUpLeg 3.875680 -0.817863 3.271853
RightLeg 4.105397 -0.000000 -0.000000
RightFoot -11.512021 -11.812358 13.144240
RightToeBase 8.858352 -0.000000 -0.000000
3034
root 4.772044 32.336101 2.056513 -2.035633 -8.035501 -0.276523
Spine 3.656395 -9.015973 1.948266
Head 5.559055 9.553224 4.714250
LeftShoulder -12.324258 -1.236446 29.954552
LeftArm -1.507683 26.133355 -101.948092
LeftForeArm 1.521978 -0.000000 11.256742
LeftHand 10.832242 -0.000000 -2.348578
LeftHandThumb1 -26.253704 0.000000 33.147579
RightShoulder -23.282217 -19.455105 -18.897043
RightArm -1.010340 0.196745 106.156954
RightForeArm 18.696884 -0.000000 16.268488
RightHand 23.792156 -0.000000 -37.677490
RightHandThumb1 -24.326973 -0.000000 -32.862282
LeftUpLeg 7.460745 2.431242 -3.237595
LeftLeg 1.841083 -0.000000 -0.000000
LeftFoot -18.605737 15.830559 -22.106323
LeftToeBase 16.720419 -0.000000 -0.000000
RightUpLeg 3.754950 -0.853101 3.297424
RightLeg 4.105037 -0.000000 -0.000000
RightFoot -11.494808 -11.858622 13.117506
RightToeBase 8.988314 -0.000000 -0.000000
3035
root 4.767348 32.336452 2.048504 -2.019945 -8.032035 -0.269618
Spine 3.698476 -9.037405 1.817273
Head 5.613460 9.405157 4.725532
LeftShoulder -12.356424 -1.263243 29.912513
LeftArm -1.529137 26.214929 -101.994039
LeftForeArm 1.446486 -0.000000 11.330481
LeftHand 10.598598 0.000000 -2.438416
LeftHandThumb1 -26.253704 0.000000 33.147579
RightShoulder -23.346048 -19.542757 -18.873235
RightArm -1.111013 0.614659 105.809925
RightForeArm 18.901272 0.000000 17.207471
RightHand 23.630117 -0.000000 -38.835985
RightHandThumb1 -24.326973 -0.000000 -32.862282
LeftUpLeg 7.410205 2.496442 -3.223438
LeftLeg 1.882082 -0.000000 -0.000000
LeftFoot -18.593325 15.754140 -22.116462
LeftToeBase 16.746470 -0.000000 -0.000000
RightUpLeg 3.715866 -0.841323 3.304612
RightLeg 4.123740 -0.000000 -0.000000
RightFoot -11.496067 -11.884442 13.108358
RightToeBase 8.948787 -0.000000 -0.000000
3036
root 4.762159 32.336949 2.042831 -2.066495 -8.066159 -0.265344
Spine 3.830684 -9.026015 1.669500
Head 5.605949 9.296623 4.738474
LeftShoulder -12.394310 -1.328779 29.886470
LeftArm -1.566243 26.253318 -102.041512
LeftForeArm 1.551254 -0.000000 11.377808
LeftHand 10.743143 -0.000000 -2.253018
LeftHandThumb1 -26.253704 0.000000 33.147579
RightShoulder -23.383804 -19.539002 -18.857236
RightArm -1.388440 1.369832 105.470882
RightForeArm 19.112392 0.000000 18.386636
RightHand 23.493748 0.000000 -39.521335
RightHandThumb1 -24.326973 -0.000000 -32.862282
LeftUpLeg 7.445726 2.563311 -3.209264
LeftLeg 1.890656 -0.000000 -0.000000
LeftFoot -18.570586 15.735974 -22.087038
LeftToeBase 16.763225 -0.000000 -0.000000
RightUpLeg 3.732950 -0.848489 3.308091
RightLeg 4.157237 -0.000000 -0.000000
RightFoot -11.484185 -11.853532 13.081228
RightToeBase 8.934832 -0.000000 -0.000000
3037
root 4.757016 32.336896 2.035534 -2.041868 -8.101608 -0.269423
Spine 3.865543 -9.003520 1.548948
Head 5.635045 9.187185 4.763332
LeftShoulder -12.424876 -1.355541 29.856901
LeftArm -1.601830 26.309384 -102.093127
LeftForeArm 1.550768 -0.000000 11.456667
LeftHand 10.768918 -0.000000 -2.073418
LeftHandThumb1 -26.253704 0.000000 33.147579
RightShoulder -23.413561 -19.483137 -18.818859
RightArm -1.858668 2.422779 105.098047
RightForeArm 19.804041 -0.000000 19.821521
RightHand 23.949350 -0.000000 -40.117064
RightHandThumb1 -24.326973 -0.000000 -32.862282
LeftUpLeg 7.416575 2.670238 -3.182980
LeftLeg 1.885046 -0.000000 -0.000000
LeftFoot -18.550480 15.658029 -22.101893
LeftToeBase 16.708366 -0.000000 -0.000000
RightUpLeg 3.685086 -0.787700 3.328059
RightLeg 4.173356 -0.000000 -0.000000
RightFoot -11.470178 -11.883942 13.058929
RightToeBase 8.922481 -0.000000 -0.000000
3038
root 4.755796 32.336891 2.025921 -2.036237 -8.241450 -0.270928
Spine 3.946530 -8.913820 1.437289
Head 5.649876 9.151668 4.735236
LeftShoulder -12.505040 -1.399672 29.830929
LeftArm -1.657167 26.295177 -102.162913
LeftForeArm 1.644892 -0.000000 11.554813
LeftHand 10.804901 -0.000000 -2.190247
LeftHandThumb1 -26.253704 0.000000 33.147579
RightShoulder -23.457617 -19.478861 -18.738636
RightArm -2.331096 3.949106 104.757982
RightForeArm 20.775525 -0.000000 21.569615
RightHand 24.409187 -0.000000 -39.796484
RightHandThumb1 -24.326973 -0.000000 -32.862282
LeftUpLeg 7.429350 2.855121 -3.166959
LeftLeg 1.840267 -0.000000 -0.000000
LeftFoot -18.523241 15.631564 -22.093092
LeftToeBase 16.716620 -0.000000 -0.000000
RightUpLeg 3.609865 -0.676573 3.336740
RightLeg 4.253113 -0.000000 -0.000000
RightFoot -11.467902 -11.857951 13.047397
RightToeBase 8.875296 -0.000000 -0.000000
